<mxfile host="app.diagrams.net" agent="Mozilla/5.0 (Windows NT 10.0; Win64; x64) AppleWebKit/537.36 (KHTML, like Gecko) Chrome/126.0.0.0 Safari/537.36 OPR/112.0.0.0" version="24.7.16">
  <diagram name="Page-1" id="2YBvvXClWsGukQMizWep">
    <mxGraphModel dx="961" dy="521" grid="1" gridSize="10" guides="1" tooltips="1" connect="1" arrows="1" fold="1" page="1" pageScale="1" pageWidth="850" pageHeight="1100" math="0" shadow="0">
      <root>
        <mxCell id="0" />
        <mxCell id="1" parent="0" />
        <mxCell id="6XrJhZcv4uqD5otf2Rir-3" value="Main Product Display" style="shape=umlLifeline;perimeter=lifelinePerimeter;whiteSpace=wrap;html=1;container=1;dropTarget=0;collapsible=0;recursiveResize=0;outlineConnect=0;portConstraint=eastwest;newEdgeStyle={&quot;curved&quot;:0,&quot;rounded&quot;:0};" vertex="1" parent="1">
          <mxGeometry x="410" y="60" width="100" height="540" as="geometry" />
        </mxCell>
        <mxCell id="6XrJhZcv4uqD5otf2Rir-21" value="" style="html=1;points=[[0,0,0,0,5],[0,1,0,0,-5],[1,0,0,0,5],[1,1,0,0,-5]];perimeter=orthogonalPerimeter;outlineConnect=0;targetShapes=umlLifeline;portConstraint=eastwest;newEdgeStyle={&quot;curved&quot;:0,&quot;rounded&quot;:0};" vertex="1" parent="6XrJhZcv4uqD5otf2Rir-3">
          <mxGeometry x="40" y="100" width="20" height="50" as="geometry" />
        </mxCell>
        <mxCell id="6XrJhZcv4uqD5otf2Rir-22" value="Sort product array" style="html=1;align=left;spacingLeft=2;endArrow=block;rounded=0;edgeStyle=orthogonalEdgeStyle;curved=0;rounded=0;" edge="1" target="6XrJhZcv4uqD5otf2Rir-21" parent="6XrJhZcv4uqD5otf2Rir-3">
          <mxGeometry relative="1" as="geometry">
            <mxPoint x="60" y="110" as="sourcePoint" />
            <Array as="points">
              <mxPoint x="90" y="110" />
              <mxPoint x="90" y="140" />
            </Array>
          </mxGeometry>
        </mxCell>
        <mxCell id="6XrJhZcv4uqD5otf2Rir-23" value="" style="html=1;points=[[0,0,0,0,5],[0,1,0,0,-5],[1,0,0,0,5],[1,1,0,0,-5]];perimeter=orthogonalPerimeter;outlineConnect=0;targetShapes=umlLifeline;portConstraint=eastwest;newEdgeStyle={&quot;curved&quot;:0,&quot;rounded&quot;:0};" vertex="1" parent="6XrJhZcv4uqD5otf2Rir-3">
          <mxGeometry x="45" y="170" width="10" height="40" as="geometry" />
        </mxCell>
        <mxCell id="6XrJhZcv4uqD5otf2Rir-32" value="" style="html=1;points=[[0,0,0,0,5],[0,1,0,0,-5],[1,0,0,0,5],[1,1,0,0,-5]];perimeter=orthogonalPerimeter;outlineConnect=0;targetShapes=umlLifeline;portConstraint=eastwest;newEdgeStyle={&quot;curved&quot;:0,&quot;rounded&quot;:0};" vertex="1" parent="6XrJhZcv4uqD5otf2Rir-3">
          <mxGeometry x="40" y="290" width="20" height="50" as="geometry" />
        </mxCell>
        <mxCell id="6XrJhZcv4uqD5otf2Rir-33" value="Search for matching criteria&lt;div&gt;in product array&lt;/div&gt;" style="html=1;align=left;spacingLeft=2;endArrow=block;rounded=0;edgeStyle=orthogonalEdgeStyle;curved=0;rounded=0;" edge="1" parent="6XrJhZcv4uqD5otf2Rir-3" target="6XrJhZcv4uqD5otf2Rir-32">
          <mxGeometry relative="1" as="geometry">
            <mxPoint x="60" y="300" as="sourcePoint" />
            <Array as="points">
              <mxPoint x="90" y="300" />
              <mxPoint x="90" y="330" />
            </Array>
          </mxGeometry>
        </mxCell>
        <mxCell id="6XrJhZcv4uqD5otf2Rir-34" value="" style="html=1;points=[[0,0,0,0,5],[0,1,0,0,-5],[1,0,0,0,5],[1,1,0,0,-5]];perimeter=orthogonalPerimeter;outlineConnect=0;targetShapes=umlLifeline;portConstraint=eastwest;newEdgeStyle={&quot;curved&quot;:0,&quot;rounded&quot;:0};" vertex="1" parent="6XrJhZcv4uqD5otf2Rir-3">
          <mxGeometry x="45" y="360" width="10" height="40" as="geometry" />
        </mxCell>
        <mxCell id="6XrJhZcv4uqD5otf2Rir-35" value="Update main product display&lt;div&gt;with new array&lt;/div&gt;" style="html=1;verticalAlign=bottom;endArrow=block;curved=0;rounded=0;" edge="1" parent="6XrJhZcv4uqD5otf2Rir-3">
          <mxGeometry width="80" relative="1" as="geometry">
            <mxPoint x="45" y="380" as="sourcePoint" />
            <mxPoint x="-190" y="380" as="targetPoint" />
          </mxGeometry>
        </mxCell>
        <mxCell id="6XrJhZcv4uqD5otf2Rir-41" value="" style="shape=umlDestroy;whiteSpace=wrap;html=1;strokeWidth=3;targetShapes=umlLifeline;" vertex="1" parent="6XrJhZcv4uqD5otf2Rir-3">
          <mxGeometry x="40" y="430" width="20" height="20" as="geometry" />
        </mxCell>
        <mxCell id="6XrJhZcv4uqD5otf2Rir-16" value="" style="shape=umlLifeline;perimeter=lifelinePerimeter;whiteSpace=wrap;html=1;container=1;dropTarget=0;collapsible=0;recursiveResize=0;outlineConnect=0;portConstraint=eastwest;newEdgeStyle={&quot;curved&quot;:0,&quot;rounded&quot;:0};participant=umlActor;" vertex="1" parent="1">
          <mxGeometry x="210" y="60" width="20" height="540" as="geometry" />
        </mxCell>
        <mxCell id="6XrJhZcv4uqD5otf2Rir-18" value="" style="html=1;points=[[0,0,0,0,5],[0,1,0,0,-5],[1,0,0,0,5],[1,1,0,0,-5]];perimeter=orthogonalPerimeter;outlineConnect=0;targetShapes=umlLifeline;portConstraint=eastwest;newEdgeStyle={&quot;curved&quot;:0,&quot;rounded&quot;:0};" vertex="1" parent="6XrJhZcv4uqD5otf2Rir-16">
          <mxGeometry x="5" y="60" width="10" height="40" as="geometry" />
        </mxCell>
        <mxCell id="6XrJhZcv4uqD5otf2Rir-27" value="" style="html=1;points=[[0,0,0,0,5],[0,1,0,0,-5],[1,0,0,0,5],[1,1,0,0,-5]];perimeter=orthogonalPerimeter;outlineConnect=0;targetShapes=umlLifeline;portConstraint=eastwest;newEdgeStyle={&quot;curved&quot;:0,&quot;rounded&quot;:0};" vertex="1" parent="6XrJhZcv4uqD5otf2Rir-16">
          <mxGeometry x="5" y="240" width="10" height="40" as="geometry" />
        </mxCell>
        <mxCell id="6XrJhZcv4uqD5otf2Rir-39" value="" style="html=1;points=[[0,0,0,0,5],[0,1,0,0,-5],[1,0,0,0,5],[1,1,0,0,-5]];perimeter=orthogonalPerimeter;outlineConnect=0;targetShapes=umlLifeline;portConstraint=eastwest;newEdgeStyle={&quot;curved&quot;:0,&quot;rounded&quot;:0};" vertex="1" parent="6XrJhZcv4uqD5otf2Rir-16">
          <mxGeometry x="5" y="420" width="10" height="40" as="geometry" />
        </mxCell>
        <mxCell id="6XrJhZcv4uqD5otf2Rir-17" value="User changes sort mode" style="html=1;verticalAlign=bottom;endArrow=block;curved=0;rounded=0;" edge="1" parent="1" source="6XrJhZcv4uqD5otf2Rir-18">
          <mxGeometry width="80" relative="1" as="geometry">
            <mxPoint x="240" y="150" as="sourcePoint" />
            <mxPoint x="459.5" y="140" as="targetPoint" />
          </mxGeometry>
        </mxCell>
        <mxCell id="6XrJhZcv4uqD5otf2Rir-20" value="User" style="text;html=1;align=center;verticalAlign=middle;resizable=0;points=[];autosize=1;strokeColor=none;fillColor=none;" vertex="1" parent="1">
          <mxGeometry x="195" y="30" width="50" height="30" as="geometry" />
        </mxCell>
        <mxCell id="6XrJhZcv4uqD5otf2Rir-24" value="Update main product display" style="html=1;verticalAlign=bottom;endArrow=block;curved=0;rounded=0;" edge="1" parent="1" target="6XrJhZcv4uqD5otf2Rir-16">
          <mxGeometry width="80" relative="1" as="geometry">
            <mxPoint x="455" y="250" as="sourcePoint" />
            <mxPoint x="330" y="250" as="targetPoint" />
          </mxGeometry>
        </mxCell>
        <mxCell id="6XrJhZcv4uqD5otf2Rir-28" value="User inputs search criteria" style="html=1;verticalAlign=bottom;endArrow=block;curved=0;rounded=0;" edge="1" parent="1" source="6XrJhZcv4uqD5otf2Rir-27" target="6XrJhZcv4uqD5otf2Rir-3">
          <mxGeometry width="80" relative="1" as="geometry">
            <mxPoint x="260" y="330" as="sourcePoint" />
            <mxPoint x="459.67" y="300" as="targetPoint" />
          </mxGeometry>
        </mxCell>
        <mxCell id="6XrJhZcv4uqD5otf2Rir-40" value="Page is refreshed or search is changed" style="html=1;verticalAlign=bottom;endArrow=block;curved=0;rounded=0;" edge="1" parent="1" source="6XrJhZcv4uqD5otf2Rir-39" target="6XrJhZcv4uqD5otf2Rir-3">
          <mxGeometry width="80" relative="1" as="geometry">
            <mxPoint x="230" y="500" as="sourcePoint" />
            <mxPoint x="310" y="500" as="targetPoint" />
          </mxGeometry>
        </mxCell>
        <mxCell id="6XrJhZcv4uqD5otf2Rir-42" value="&lt;font style=&quot;font-size: 11px;&quot;&gt;Deallocate old&lt;/font&gt;&lt;div style=&quot;font-size: 11px;&quot;&gt;&lt;font style=&quot;font-size: 11px;&quot;&gt;search array&lt;/font&gt;&lt;/div&gt;" style="text;html=1;align=center;verticalAlign=middle;resizable=0;points=[];autosize=1;strokeColor=none;fillColor=none;" vertex="1" parent="1">
          <mxGeometry x="470" y="480" width="90" height="40" as="geometry" />
        </mxCell>
        <mxCell id="6XrJhZcv4uqD5otf2Rir-44" value="" style="html=1;points=[[0,0,0,0,5],[0,1,0,0,-5],[1,0,0,0,5],[1,1,0,0,-5]];perimeter=orthogonalPerimeter;outlineConnect=0;targetShapes=umlLifeline;portConstraint=eastwest;newEdgeStyle={&quot;curved&quot;:0,&quot;rounded&quot;:0};" vertex="1" parent="1">
          <mxGeometry x="455" y="540" width="10" height="40" as="geometry" />
        </mxCell>
        <mxCell id="6XrJhZcv4uqD5otf2Rir-45" value="Revert main product display to original" style="html=1;verticalAlign=bottom;endArrow=block;curved=0;rounded=0;" edge="1" parent="1">
          <mxGeometry width="80" relative="1" as="geometry">
            <mxPoint x="455" y="560" as="sourcePoint" />
            <mxPoint x="220" y="560" as="targetPoint" />
          </mxGeometry>
        </mxCell>
      </root>
    </mxGraphModel>
  </diagram>
</mxfile>
